<svg width="128" height="128" viewBox="0 0 128 128" fill="none" xmlns="http://www.w3.org/2000/svg">
  <circle cx="64" cy="64" r="54" fill="#fff"/>
  <path d="M113.9 65.2c0-3.8-.3-6.6-.9-9.5H65v18.7h28.2c-.6 4.8-3.6 12-10.4 16.8l-.1 1.3 15.1 11.7 1 .1c9.3-8.6 15.1-21.3 15.1-39.1Z" fill="#4285F4"/>
  <path d="M65 115c13.3 0 24.4-4.4 32.6-11.9L82.7 91.2c-4 2.8-9.4 4.8-17.7 4.8-12.8 0-23.6-8.4-27.5-20.1l-1.2.1-15.7 12.2-.2 1.1C28.5 104.7 44.4 115 65 115Z" fill="#34A853"/>
  <path d="M37.5 75.9c-1-3-1.6-6.2-1.6-9.5s.6-6.5 1.5-9.5l-.1-1.3-15.9-12.3-1 .5A50.8 50.8 0 0 0 15 66.4c0 8.2 2 16 5.4 22.9l17.1-13.4Z" fill="#FBBC05"/>
  <path d="M65 36.8c9.3 0 15.5 4 19.1 7.4L98 30.6C89.5 22.7 78.3 18 65 18 44.4 18 28.5 28.3 20.4 43.8l17 13.1C41.4 45.2 52.2 36.8 65 36.8Z" fill="#EB4335"/>
</svg>
